<svg width="15" height="15" viewBox="0 0 15 15" fill="none" xmlns="http://www.w3.org/2000/svg">
<path fill-rule="evenodd" clip-rule="evenodd" d="M13.3757 6.70422C12.243 6.22199 11.213 5.5274 10.3414 4.65792C9.12759 3.44169 8.26162 1.9226 7.83348 0.258493C7.81469 0.184583 7.77181 0.119042 7.71161 0.0722286C7.65141 0.0254152 7.57732 0 7.50106 0C7.42481 0 7.35072 0.0254152 7.29052 0.0722286C7.23032 0.119042 7.18744 0.184583 7.16865 0.258493C6.7396 1.92238 5.8735 3.4413 4.66005 4.65792C3.78837 5.52729 2.75842 6.22188 1.62573 6.70422C1.18251 6.89514 0.727023 7.04856 0.260623 7.16652C0.18626 7.18479 0.120171 7.22747 0.0729236 7.28773C0.0256764 7.348 0 7.42236 0 7.49894C0 7.57551 0.0256764 7.64987 0.0729236 7.71014C0.120171 7.7704 0.18626 7.81308 0.260623 7.83135C0.727023 7.94863 1.18115 8.10205 1.62573 8.29297C2.75848 8.77519 3.78846 9.46979 4.66005 10.3393C5.87419 11.5556 6.74039 13.075 7.16865 14.7394C7.18692 14.8137 7.2296 14.8798 7.28986 14.9271C7.35013 14.9743 7.42449 15 7.50106 15C7.57764 15 7.652 14.9743 7.71227 14.9271C7.77253 14.8798 7.81521 14.8137 7.83348 14.7394C7.95076 14.2723 8.10418 13.8182 8.2951 13.3736C8.7773 12.2408 9.47189 11.2108 10.3414 10.3393C11.5579 9.12541 13.0772 8.25944 14.7415 7.83135C14.8154 7.81256 14.881 7.76968 14.9278 7.70948C14.9746 7.64928 15 7.57519 15 7.49894C15 7.42268 14.9746 7.34859 14.9278 7.28839C14.881 7.22819 14.8154 7.18531 14.7415 7.16652C14.2747 7.04907 13.8179 6.89447 13.3757 6.70422Z" fill="#D9D9D9"/>
</svg>
