<svg width="15" height="15" viewBox="0 0 15 15" fill="none" xmlns="http://www.w3.org/2000/svg">
<path d="M7.5 15C6.47135 15 5.5013 14.8047 4.58984 14.4141C3.67839 14.0234 2.88086 13.4863 2.19727 12.8027C1.51367 12.1191 0.976562 11.3216 0.585938 10.4102C0.195312 9.4987 0 8.52865 0 7.5C0 6.45833 0.195312 5.48503 0.585938 4.58008C0.976562 3.67513 1.51367 2.88086 2.19727 2.19727C2.88086 1.51367 3.67839 0.976562 4.58984 0.585938C5.5013 0.195312 6.47135 0 7.5 0C8.32031 0 9.10156 0.123698 9.84375 0.371094C10.5859 0.61849 11.2695 0.970052 11.8945 1.42578L10.8789 2.44141C10.3971 2.10286 9.86979 1.8457 9.29688 1.66992C8.72396 1.49414 8.125 1.40625 7.5 1.40625C5.80729 1.40625 4.36849 1.9987 3.18359 3.18359C1.9987 4.36849 1.40625 5.80729 1.40625 7.5C1.40625 9.19271 1.9987 10.6315 3.18359 11.8164C4.36849 13.0013 5.80729 13.5938 7.5 13.5938C9.19271 13.5938 10.6315 13.0013 11.8164 11.8164C13.0013 10.6315 13.5938 9.19271 13.5938 7.5C13.5938 7.22656 13.5742 6.95638 13.5352 6.68945C13.4961 6.42253 13.444 6.15885 13.3789 5.89844L14.4922 4.78516C14.6615 5.20182 14.7884 5.63802 14.873 6.09375C14.9577 6.54948 15 7.01823 15 7.5C15 8.52865 14.8047 9.4987 14.4141 10.4102C14.0234 11.3216 13.4863 12.1191 12.8027 12.8027C12.1191 13.4863 11.3249 14.0234 10.4199 14.4141C9.51497 14.8047 8.54167 15 7.5 15ZM6.42578 10.8789L3.28125 7.73438L4.29688 6.71875L6.44531 8.86719L14.0039 1.30859L15 2.30469L6.42578 10.8789Z" fill="#D9D9D9"/>
</svg>
