<svg width="180" height="35" viewBox="0 0 180 35" fill="none" xmlns="http://www.w3.org/2000/svg">
<path d="M9.16667 24.1667L20.8333 20.8333L24.1667 9.16667L12.5 12.5L9.16667 24.1667ZM16.6667 19.1667C15.9722 19.1667 15.3819 18.9236 14.8958 18.4375C14.4097 17.9514 14.1667 17.3611 14.1667 16.6667C14.1667 15.9722 14.4097 15.3819 14.8958 14.8958C15.3819 14.4097 15.9722 14.1667 16.6667 14.1667C17.3611 14.1667 17.9514 14.4097 18.4375 14.8958C18.9236 15.3819 19.1667 15.9722 19.1667 16.6667C19.1667 17.3611 18.9236 17.9514 18.4375 18.4375C17.9514 18.9236 17.3611 19.1667 16.6667 19.1667ZM16.6667 33.3333C14.3611 33.3333 12.1944 32.8958 10.1667 32.0208C8.13889 31.1458 6.375 29.9583 4.875 28.4583C3.375 26.9583 2.1875 25.1944 1.3125 23.1667C0.4375 21.1389 0 18.9722 0 16.6667C0 14.3611 0.4375 12.1944 1.3125 10.1667C2.1875 8.13889 3.375 6.375 4.875 4.875C6.375 3.375 8.13889 2.1875 10.1667 1.3125C12.1944 0.4375 14.3611 0 16.6667 0C18.9722 0 21.1389 0.4375 23.1667 1.3125C25.1944 2.1875 26.9583 3.375 28.4583 4.875C29.9583 6.375 31.1458 8.13889 32.0208 10.1667C32.8958 12.1944 33.3333 14.3611 33.3333 16.6667C33.3333 18.9722 32.8958 21.1389 32.0208 23.1667C31.1458 25.1944 29.9583 26.9583 28.4583 28.4583C26.9583 29.9583 25.1944 31.1458 23.1667 32.0208C21.1389 32.8958 18.9722 33.3333 16.6667 33.3333ZM16.6667 30C20.3611 30 23.5069 28.7014 26.1042 26.1042C28.7014 23.5069 30 20.3611 30 16.6667C30 12.9722 28.7014 9.82639 26.1042 7.22917C23.5069 4.63194 20.3611 3.33333 16.6667 3.33333C12.9722 3.33333 9.82639 4.63194 7.22917 7.22917C4.63194 9.82639 3.33333 12.9722 3.33333 16.6667C3.33333 20.3611 4.63194 23.5069 7.22917 26.1042C9.82639 28.7014 12.9722 30 16.6667 30Z" fill="#E3E3E3"/>
<path d="M51.3227 28.6147C48.592 28.6147 46.4267 27.8467 44.8267 26.3107C43.2267 24.7533 42.4267 22.5133 42.4267 19.5907V14.3427C42.4267 11.42 43.2267 9.19067 44.8267 7.65467C46.4267 6.09733 48.592 5.31867 51.3227 5.31867C54.0107 5.31867 56.08 6.06533 57.5307 7.55867C59.0027 9.052 59.7387 11.0893 59.7387 13.6707V13.8627H56.3147V13.5747C56.3147 12.06 55.8987 10.8227 55.0667 9.86267C54.256 8.90267 53.008 8.42267 51.3227 8.42267C49.616 8.42267 48.2827 8.94533 47.3227 9.99067C46.3627 11.0147 45.8827 12.444 45.8827 14.2787V19.6547C45.8827 21.468 46.3627 22.8973 47.3227 23.9427C48.2827 24.988 49.616 25.5107 51.3227 25.5107C53.008 25.5107 54.256 25.0307 55.0667 24.0707C55.8987 23.0893 56.3147 21.852 56.3147 20.3587V19.8147H59.7387V20.2627C59.7387 22.844 59.0027 24.8813 57.5307 26.3747C56.08 27.868 54.0107 28.6147 51.3227 28.6147Z" fill="#E3E3E3"/>
<path d="M71.0532 28.6147C69.4745 28.6147 68.0665 28.2947 66.8292 27.6547C65.6132 26.9933 64.6532 26.0547 63.9492 24.8387C63.2452 23.6227 62.8932 22.1827 62.8932 20.5187V20.0387C62.8932 18.3747 63.2452 16.9453 63.9492 15.7507C64.6532 14.5347 65.6132 13.596 66.8292 12.9347C68.0665 12.2733 69.4745 11.9427 71.0532 11.9427C72.6318 11.9427 74.0398 12.2733 75.2772 12.9347C76.5145 13.596 77.4852 14.5347 78.1892 15.7507C78.8932 16.9453 79.2452 18.3747 79.2452 20.0387V20.5187C79.2452 22.1827 78.8932 23.6227 78.1892 24.8387C77.4852 26.0547 76.5145 26.9933 75.2772 27.6547C74.0398 28.2947 72.6318 28.6147 71.0532 28.6147ZM71.0532 25.6707C72.5038 25.6707 73.6772 25.212 74.5732 24.2947C75.4905 23.356 75.9492 22.0653 75.9492 20.4227V20.1347C75.9492 18.492 75.5012 17.212 74.6052 16.2947C73.7092 15.356 72.5252 14.8867 71.0532 14.8867C69.6238 14.8867 68.4505 15.356 67.5332 16.2947C66.6372 17.212 66.1892 18.492 66.1892 20.1347V20.4227C66.1892 22.0653 66.6372 23.356 67.5332 24.2947C68.4505 25.212 69.6238 25.6707 71.0532 25.6707Z" fill="#E3E3E3"/>
<path d="M83.3487 28.1667V12.3907H86.5807V14.2467H87.0927C87.3913 13.692 87.8713 13.2013 88.5327 12.7747C89.194 12.348 90.09 12.1347 91.2207 12.1347C92.394 12.1347 93.3327 12.38 94.0367 12.8707C94.762 13.34 95.306 13.948 95.6687 14.6947H96.1807C96.5433 13.9693 97.066 13.3613 97.7487 12.8707C98.4527 12.38 99.4447 12.1347 100.725 12.1347C101.749 12.1347 102.655 12.348 103.445 12.7747C104.234 13.18 104.863 13.7987 105.333 14.6307C105.802 15.4413 106.037 16.4547 106.037 17.6707V28.1667H102.741V17.9267C102.741 16.9667 102.474 16.2307 101.941 15.7187C101.429 15.1853 100.693 14.9187 99.7327 14.9187C98.7087 14.9187 97.8873 15.2493 97.2687 15.9107C96.65 16.572 96.3407 17.5213 96.3407 18.7587V28.1667H93.0447V17.9267C93.0447 16.9667 92.778 16.2307 92.2447 15.7187C91.7327 15.1853 90.9967 14.9187 90.0367 14.9187C89.0127 14.9187 88.1913 15.2493 87.5727 15.9107C86.954 16.572 86.6447 17.5213 86.6447 18.7587V28.1667H83.3487Z" fill="#E3E3E3"/>
<path d="M110.786 34.5667V12.3907H114.018V14.6627H114.53C114.936 13.9587 115.543 13.3293 116.354 12.7747C117.186 12.22 118.37 11.9427 119.906 11.9427C121.229 11.9427 122.434 12.2627 123.522 12.9027C124.632 13.5427 125.517 14.4707 126.178 15.6867C126.861 16.8813 127.202 18.332 127.202 20.0387V20.5187C127.202 22.2253 126.871 23.6867 126.21 24.9027C125.549 26.0973 124.663 27.0147 123.554 27.6547C122.445 28.2947 121.229 28.6147 119.906 28.6147C118.882 28.6147 118.018 28.4867 117.314 28.2307C116.61 27.9747 116.045 27.6547 115.618 27.2707C115.191 26.8653 114.85 26.4493 114.594 26.0227H114.082V34.5667H110.786ZM118.946 25.7347C120.397 25.7347 121.581 25.276 122.498 24.3587C123.416 23.4413 123.874 22.1293 123.874 20.4227V20.1347C123.874 18.4493 123.405 17.148 122.466 16.2307C121.549 15.3133 120.376 14.8547 118.946 14.8547C117.538 14.8547 116.365 15.3133 115.426 16.2307C114.509 17.148 114.05 18.4493 114.05 20.1347V20.4227C114.05 22.1293 114.509 23.4413 115.426 24.3587C116.365 25.276 117.538 25.7347 118.946 25.7347Z" fill="#E3E3E3"/>
<path d="M136.182 28.6147C135.052 28.6147 134.038 28.4227 133.142 28.0387C132.268 27.6547 131.564 27.0893 131.03 26.3427C130.518 25.596 130.262 24.6893 130.262 23.6227C130.262 22.5347 130.518 21.6387 131.03 20.9347C131.564 20.2093 132.278 19.6653 133.174 19.3027C134.091 18.94 135.126 18.7587 136.278 18.7587H141.078V17.7347C141.078 16.8173 140.801 16.0813 140.246 15.5267C139.691 14.972 138.838 14.6947 137.686 14.6947C136.556 14.6947 135.691 14.9613 135.094 15.4947C134.497 16.028 134.102 16.7213 133.91 17.5747L130.838 16.5827C131.094 15.7293 131.499 14.9613 132.054 14.2787C132.63 13.5747 133.388 13.0093 134.326 12.5827C135.265 12.156 136.396 11.9427 137.718 11.9427C139.766 11.9427 141.377 12.4653 142.55 13.5107C143.724 14.556 144.31 16.0387 144.31 17.9587V24.4547C144.31 25.0947 144.609 25.4147 145.206 25.4147H146.55V28.1667H144.086C143.339 28.1667 142.731 27.9747 142.262 27.5907C141.793 27.2067 141.558 26.684 141.558 26.0227V25.9267H141.078C140.908 26.2467 140.652 26.62 140.31 27.0467C139.969 27.4733 139.467 27.8467 138.806 28.1667C138.145 28.4653 137.27 28.6147 136.182 28.6147ZM136.662 25.8947C137.985 25.8947 139.051 25.5213 139.862 24.7747C140.673 24.0067 141.078 22.9613 141.078 21.6387V21.3187H136.47C135.596 21.3187 134.892 21.5107 134.358 21.8947C133.825 22.2573 133.558 22.8013 133.558 23.5267C133.558 24.252 133.835 24.828 134.39 25.2547C134.945 25.6813 135.702 25.8947 136.662 25.8947Z" fill="#E3E3E3"/>
<path d="M156.094 28.6147C154.089 28.6147 152.425 28.1667 151.102 27.2707C149.779 26.3747 148.969 25.02 148.67 23.2067L151.742 22.4707C151.913 23.3453 152.201 24.0387 152.606 24.5507C153.011 25.0627 153.513 25.4253 154.11 25.6387C154.729 25.852 155.39 25.9587 156.094 25.9587C157.139 25.9587 157.939 25.756 158.494 25.3507C159.07 24.9453 159.358 24.4227 159.358 23.7827C159.358 23.1427 159.091 22.6733 158.558 22.3747C158.025 22.076 157.235 21.8307 156.19 21.6387L155.102 21.4467C154.035 21.2547 153.065 20.9773 152.19 20.6147C151.315 20.252 150.622 19.7507 150.11 19.1107C149.598 18.4707 149.342 17.6493 149.342 16.6467C149.342 15.1533 149.897 14.0013 151.006 13.1907C152.115 12.3587 153.587 11.9427 155.422 11.9427C157.193 11.9427 158.643 12.348 159.774 13.1587C160.926 13.948 161.673 15.0253 162.014 16.3907L158.942 17.2547C158.75 16.2947 158.345 15.6227 157.726 15.2387C157.107 14.8333 156.339 14.6307 155.422 14.6307C154.526 14.6307 153.822 14.8013 153.31 15.1427C152.798 15.4627 152.542 15.9213 152.542 16.5187C152.542 17.1587 152.787 17.628 153.278 17.9267C153.79 18.2253 154.473 18.4493 155.326 18.5987L156.446 18.7907C157.577 18.9827 158.611 19.2493 159.55 19.5907C160.489 19.932 161.225 20.4227 161.758 21.0627C162.313 21.7027 162.59 22.556 162.59 23.6227C162.59 25.2013 162.003 26.428 160.83 27.3027C159.657 28.1773 158.078 28.6147 156.094 28.6147Z" fill="#E3E3E3"/>
<path d="M172.906 28.6147C170.901 28.6147 169.237 28.1667 167.914 27.2707C166.592 26.3747 165.781 25.02 165.482 23.2067L168.554 22.4707C168.725 23.3453 169.013 24.0387 169.418 24.5507C169.824 25.0627 170.325 25.4253 170.922 25.6387C171.541 25.852 172.202 25.9587 172.906 25.9587C173.952 25.9587 174.752 25.756 175.306 25.3507C175.882 24.9453 176.17 24.4227 176.17 23.7827C176.17 23.1427 175.904 22.6733 175.37 22.3747C174.837 22.076 174.048 21.8307 173.002 21.6387L171.914 21.4467C170.848 21.2547 169.877 20.9773 169.002 20.6147C168.128 20.252 167.434 19.7507 166.922 19.1107C166.41 18.4707 166.154 17.6493 166.154 16.6467C166.154 15.1533 166.709 14.0013 167.818 13.1907C168.928 12.3587 170.4 11.9427 172.234 11.9427C174.005 11.9427 175.456 12.348 176.586 13.1587C177.738 13.948 178.485 15.0253 178.826 16.3907L175.754 17.2547C175.562 16.2947 175.157 15.6227 174.538 15.2387C173.92 14.8333 173.152 14.6307 172.234 14.6307C171.338 14.6307 170.634 14.8013 170.122 15.1427C169.61 15.4627 169.354 15.9213 169.354 16.5187C169.354 17.1587 169.6 17.628 170.09 17.9267C170.602 18.2253 171.285 18.4493 172.138 18.5987L173.258 18.7907C174.389 18.9827 175.424 19.2493 176.362 19.5907C177.301 19.932 178.037 20.4227 178.57 21.0627C179.125 21.7027 179.402 22.556 179.402 23.6227C179.402 25.2013 178.816 26.428 177.642 27.3027C176.469 28.1773 174.89 28.6147 172.906 28.6147Z" fill="#E3E3E3"/>
</svg>
