<svg width="451" height="295" viewBox="0 0 451 295" fill="none" xmlns="http://www.w3.org/2000/svg">
<rect x="130.452" width="189.749" height="59.2965" rx="5.88178" fill="#E3E3E3"/>
<rect x="297.965" y="83.015" width="142.312" height="47.4372" rx="5.88178" fill="#E3E3E3"/>
<path d="M312.718 112.874V100.523H317.447C318.188 100.523 318.847 100.67 319.423 100.964C320.012 101.246 320.476 101.652 320.817 102.181C321.159 102.711 321.329 103.352 321.329 104.105V104.334C321.329 105.075 321.153 105.716 320.8 106.257C320.459 106.787 319.994 107.193 319.406 107.475C318.818 107.757 318.165 107.898 317.447 107.898H314.2V112.874H312.718ZM314.2 106.557H317.288C318.077 106.557 318.7 106.363 319.159 105.975C319.618 105.575 319.847 105.016 319.847 104.299V104.122C319.847 103.405 319.618 102.852 319.159 102.464C318.712 102.064 318.088 101.864 317.288 101.864H314.2V106.557ZM323.545 112.874V104.246H324.904V105.305H325.151C325.304 104.928 325.539 104.652 325.857 104.475C326.174 104.299 326.592 104.211 327.11 104.211H328.133V105.481H327.021C326.398 105.481 325.892 105.657 325.504 106.01C325.127 106.351 324.939 106.887 324.939 107.616V112.874H323.545ZM334.051 113.121C333.18 113.121 332.41 112.939 331.739 112.574C331.08 112.21 330.563 111.698 330.186 111.039C329.822 110.369 329.639 109.581 329.639 108.675V108.445C329.639 107.551 329.822 106.769 330.186 106.099C330.563 105.428 331.08 104.91 331.739 104.546C332.41 104.181 333.18 103.999 334.051 103.999C334.921 103.999 335.686 104.181 336.345 104.546C337.015 104.91 337.533 105.428 337.897 106.099C338.274 106.769 338.462 107.551 338.462 108.445V108.675C338.462 109.581 338.274 110.369 337.897 111.039C337.533 111.698 337.015 112.21 336.345 112.574C335.686 112.939 334.921 113.121 334.051 113.121ZM334.051 111.869C334.968 111.869 335.698 111.58 336.239 111.004C336.792 110.416 337.068 109.628 337.068 108.64V108.481C337.068 107.493 336.792 106.71 336.239 106.134C335.698 105.546 334.968 105.252 334.051 105.252C333.145 105.252 332.416 105.546 331.863 106.134C331.31 106.71 331.033 107.493 331.033 108.481V108.64C331.033 109.628 331.31 110.416 331.863 111.004C332.416 111.58 333.145 111.869 334.051 111.869ZM340.724 108.604V108.357C340.724 107.451 340.906 106.675 341.271 106.028C341.635 105.381 342.129 104.881 342.753 104.528C343.376 104.175 344.059 103.999 344.8 103.999C345.705 103.999 346.4 104.175 346.882 104.528C347.376 104.869 347.741 105.252 347.976 105.675H348.223V104.246H349.546V114.886C349.546 115.357 349.417 115.727 349.158 115.998C348.899 116.268 348.523 116.403 348.029 116.403H342.171V115.168H347.658C348.011 115.168 348.188 114.992 348.188 114.639V111.357H347.941C347.799 111.616 347.599 111.869 347.341 112.116C347.082 112.363 346.747 112.569 346.335 112.733C345.923 112.886 345.411 112.963 344.8 112.963C344.059 112.963 343.376 112.786 342.753 112.433C342.129 112.08 341.635 111.58 341.271 110.933C340.906 110.275 340.724 109.498 340.724 108.604ZM345.17 111.727C346.064 111.727 346.788 111.445 347.341 110.88C347.905 110.316 348.188 109.539 348.188 108.551V108.41C348.188 107.41 347.905 106.634 347.341 106.081C346.788 105.516 346.064 105.234 345.17 105.234C344.288 105.234 343.559 105.516 342.982 106.081C342.418 106.634 342.135 107.41 342.135 108.41V108.551C342.135 109.539 342.418 110.316 342.982 110.88C343.559 111.445 344.288 111.727 345.17 111.727ZM352.645 112.874V104.246H354.004V105.305H354.251C354.404 104.928 354.639 104.652 354.956 104.475C355.274 104.299 355.692 104.211 356.209 104.211H357.233V105.481H356.121C355.498 105.481 354.992 105.657 354.603 106.01C354.227 106.351 354.039 106.887 354.039 107.616V112.874H352.645ZM361.827 113.121C361.227 113.121 360.68 113.016 360.186 112.804C359.692 112.592 359.303 112.286 359.021 111.886C358.739 111.486 358.598 110.998 358.598 110.422C358.598 109.834 358.739 109.351 359.021 108.975C359.303 108.587 359.692 108.298 360.186 108.11C360.68 107.91 361.233 107.81 361.844 107.81H364.756V107.175C364.756 106.563 364.573 106.081 364.209 105.728C363.856 105.375 363.326 105.199 362.621 105.199C361.927 105.199 361.385 105.369 360.997 105.71C360.609 106.04 360.344 106.487 360.203 107.051L358.898 106.628C359.039 106.146 359.262 105.71 359.568 105.322C359.874 104.922 360.28 104.605 360.786 104.369C361.303 104.122 361.921 103.999 362.638 103.999C363.744 103.999 364.603 104.287 365.215 104.863C365.826 105.428 366.132 106.228 366.132 107.263V111.163C366.132 111.516 366.297 111.692 366.626 111.692H367.42V112.874H366.203C365.814 112.874 365.503 112.769 365.267 112.557C365.032 112.333 364.915 112.039 364.915 111.675V111.586H364.703C364.573 111.81 364.397 112.045 364.173 112.292C363.962 112.527 363.668 112.721 363.291 112.874C362.915 113.039 362.427 113.121 361.827 113.121ZM361.985 111.922C362.809 111.922 363.474 111.68 363.979 111.198C364.497 110.704 364.756 110.016 364.756 109.134V108.939H361.897C361.344 108.939 360.886 109.063 360.521 109.31C360.168 109.545 359.992 109.904 359.992 110.386C359.992 110.869 360.174 111.245 360.539 111.516C360.915 111.786 361.397 111.922 361.985 111.922ZM369.506 112.874V104.246H370.864V105.322H371.112C371.276 105.016 371.547 104.734 371.923 104.475C372.3 104.216 372.829 104.087 373.511 104.087C374.182 104.087 374.723 104.234 375.135 104.528C375.558 104.822 375.864 105.181 376.052 105.605H376.299C376.499 105.181 376.799 104.822 377.199 104.528C377.611 104.234 378.181 104.087 378.911 104.087C379.487 104.087 379.993 104.205 380.428 104.44C380.864 104.675 381.205 105.016 381.452 105.463C381.71 105.899 381.84 106.422 381.84 107.034V112.874H380.446V107.157C380.446 106.581 380.275 106.128 379.934 105.799C379.605 105.457 379.14 105.287 378.54 105.287C377.905 105.287 377.382 105.493 376.97 105.904C376.57 106.316 376.37 106.91 376.37 107.687V112.874H374.976V107.157C374.976 106.581 374.805 106.128 374.464 105.799C374.135 105.457 373.67 105.287 373.07 105.287C372.435 105.287 371.911 105.493 371.5 105.904C371.1 106.316 370.9 106.91 370.9 107.687V112.874H369.506ZM387.51 113.121C386.91 113.121 386.363 113.016 385.869 112.804C385.375 112.592 384.987 112.286 384.705 111.886C384.422 111.486 384.281 110.998 384.281 110.422C384.281 109.834 384.422 109.351 384.705 108.975C384.987 108.587 385.375 108.298 385.869 108.11C386.363 107.91 386.916 107.81 387.528 107.81H390.439V107.175C390.439 106.563 390.257 106.081 389.892 105.728C389.539 105.375 389.01 105.199 388.304 105.199C387.61 105.199 387.069 105.369 386.681 105.71C386.293 106.04 386.028 106.487 385.887 107.051L384.581 106.628C384.722 106.146 384.946 105.71 385.252 105.322C385.558 104.922 385.963 104.605 386.469 104.369C386.987 104.122 387.604 103.999 388.322 103.999C389.428 103.999 390.286 104.287 390.898 104.863C391.51 105.428 391.816 106.228 391.816 107.263V111.163C391.816 111.516 391.98 111.692 392.31 111.692H393.104V112.874H391.886C391.498 112.874 391.186 112.769 390.951 112.557C390.716 112.333 390.598 112.039 390.598 111.675V111.586H390.386C390.257 111.81 390.081 112.045 389.857 112.292C389.645 112.527 389.351 112.721 388.975 112.874C388.598 113.039 388.11 113.121 387.51 113.121ZM387.669 111.922C388.493 111.922 389.157 111.68 389.663 111.198C390.181 110.704 390.439 110.016 390.439 109.134V108.939H387.581C387.028 108.939 386.569 109.063 386.204 109.31C385.852 109.545 385.675 109.904 385.675 110.386C385.675 110.869 385.857 111.245 386.222 111.516C386.599 111.786 387.081 111.922 387.669 111.922ZM398.918 113.121C398.083 113.121 397.33 112.945 396.66 112.592C396.001 112.227 395.478 111.71 395.089 111.039C394.713 110.369 394.525 109.575 394.525 108.657V108.463C394.525 107.534 394.713 106.74 395.089 106.081C395.478 105.41 396.001 104.899 396.66 104.546C397.33 104.181 398.083 103.999 398.918 103.999C399.742 103.999 400.442 104.152 401.018 104.458C401.606 104.763 402.065 105.169 402.395 105.675C402.736 106.181 402.953 106.722 403.047 107.298L401.689 107.581C401.63 107.157 401.489 106.769 401.265 106.416C401.053 106.063 400.753 105.781 400.365 105.569C399.977 105.357 399.501 105.252 398.936 105.252C398.36 105.252 397.842 105.381 397.383 105.64C396.936 105.899 396.577 106.269 396.307 106.751C396.048 107.234 395.919 107.81 395.919 108.481V108.64C395.919 109.31 396.048 109.886 396.307 110.369C396.577 110.851 396.936 111.222 397.383 111.48C397.842 111.739 398.36 111.869 398.936 111.869C399.795 111.869 400.448 111.645 400.895 111.198C401.353 110.751 401.636 110.198 401.742 109.539L403.118 109.839C402.989 110.404 402.753 110.939 402.412 111.445C402.071 111.951 401.606 112.357 401.018 112.663C400.442 112.968 399.742 113.121 398.918 113.121ZM398.971 116.492C398.618 116.492 398.283 116.445 397.966 116.351C397.648 116.256 397.366 116.133 397.119 115.98L397.542 115.098C397.742 115.215 397.954 115.315 398.177 115.398C398.413 115.48 398.671 115.521 398.954 115.521C399.189 115.521 399.389 115.474 399.554 115.38C399.718 115.286 399.801 115.133 399.801 114.921C399.801 114.733 399.724 114.592 399.571 114.498C399.43 114.404 399.218 114.357 398.936 114.357H398.283L398.46 112.504H399.483L399.377 113.668C399.836 113.668 400.206 113.786 400.489 114.021C400.771 114.257 400.912 114.598 400.912 115.045C400.912 115.374 400.824 115.645 400.648 115.856C400.471 116.08 400.236 116.239 399.942 116.333C399.648 116.439 399.324 116.492 398.971 116.492ZM408.317 113.121C407.717 113.121 407.17 113.016 406.676 112.804C406.182 112.592 405.794 112.286 405.512 111.886C405.229 111.486 405.088 110.998 405.088 110.422C405.088 109.834 405.229 109.351 405.512 108.975C405.794 108.587 406.182 108.298 406.676 108.11C407.17 107.91 407.723 107.81 408.335 107.81H411.246V107.175C411.246 106.563 411.064 106.081 410.699 105.728C410.346 105.375 409.817 105.199 409.111 105.199C408.417 105.199 407.876 105.369 407.488 105.71C407.1 106.04 406.835 106.487 406.694 107.051L405.388 106.628C405.529 106.146 405.753 105.71 406.059 105.322C406.365 104.922 406.77 104.605 407.276 104.369C407.794 104.122 408.411 103.999 409.129 103.999C410.235 103.999 411.093 104.287 411.705 104.863C412.317 105.428 412.623 106.228 412.623 107.263V111.163C412.623 111.516 412.787 111.692 413.117 111.692H413.911V112.874H412.693C412.305 112.874 411.993 112.769 411.758 112.557C411.523 112.333 411.405 112.039 411.405 111.675V111.586H411.193C411.064 111.81 410.888 112.045 410.664 112.292C410.452 112.527 410.158 112.721 409.782 112.874C409.405 113.039 408.917 113.121 408.317 113.121ZM408.476 111.922C409.3 111.922 409.964 111.68 410.47 111.198C410.988 110.704 411.246 110.016 411.246 109.134V108.939H408.388C407.835 108.939 407.376 109.063 407.012 109.31C406.659 109.545 406.482 109.904 406.482 110.386C406.482 110.869 406.665 111.245 407.029 111.516C407.406 111.786 407.888 111.922 408.476 111.922ZM407.223 103.24L406.341 102.728L406.888 101.74C407.029 101.505 407.2 101.323 407.4 101.193C407.611 101.052 407.853 100.981 408.123 100.981C408.37 100.981 408.582 101.034 408.758 101.14C408.947 101.234 409.147 101.393 409.358 101.617C409.5 101.781 409.629 101.923 409.747 102.04C409.864 102.146 409.988 102.199 410.117 102.199C410.247 102.199 410.352 102.164 410.435 102.093C410.517 102.011 410.594 101.911 410.664 101.793L411.088 101.034L411.97 101.546L411.423 102.552C411.293 102.787 411.129 102.975 410.929 103.117C410.729 103.246 410.488 103.311 410.205 103.311C409.958 103.311 409.741 103.264 409.552 103.169C409.364 103.064 409.17 102.893 408.97 102.658C408.829 102.505 408.7 102.375 408.582 102.27C408.464 102.152 408.341 102.093 408.211 102.093C408.07 102.093 407.958 102.134 407.876 102.217C407.794 102.287 407.723 102.375 407.664 102.481L407.223 103.24ZM419.743 113.121C418.873 113.121 418.102 112.939 417.432 112.574C416.773 112.21 416.255 111.698 415.879 111.039C415.514 110.369 415.332 109.581 415.332 108.675V108.445C415.332 107.551 415.514 106.769 415.879 106.099C416.255 105.428 416.773 104.91 417.432 104.546C418.102 104.181 418.873 103.999 419.743 103.999C420.614 103.999 421.378 104.181 422.037 104.546C422.707 104.91 423.225 105.428 423.59 106.099C423.966 106.769 424.154 107.551 424.154 108.445V108.675C424.154 109.581 423.966 110.369 423.59 111.039C423.225 111.698 422.707 112.21 422.037 112.574C421.378 112.939 420.614 113.121 419.743 113.121ZM419.743 111.869C420.661 111.869 421.39 111.58 421.931 111.004C422.484 110.416 422.76 109.628 422.76 108.64V108.481C422.76 107.493 422.484 106.71 421.931 106.134C421.39 105.546 420.661 105.252 419.743 105.252C418.837 105.252 418.108 105.546 417.555 106.134C417.002 106.71 416.726 107.493 416.726 108.481V108.64C416.726 109.628 417.002 110.416 417.555 111.004C418.108 111.58 418.837 111.869 419.743 111.869Z" fill="black"/>
<rect x="10.3768" y="128.97" width="142.312" height="47.4372" rx="5.88178" fill="#E3E3E3"/>
<path d="M39.9541 158.829V146.477H42.7774L46.0594 157.894H46.2888L49.5708 146.477H52.3941V158.829H50.9648V147.448H50.7178L47.4534 158.829H44.8948L41.6304 147.448H41.3834V158.829H39.9541ZM58.0977 159.076C57.4977 159.076 56.9507 158.97 56.4566 158.759C55.9626 158.547 55.5744 158.241 55.292 157.841C55.0097 157.441 54.8686 156.953 54.8686 156.376C54.8686 155.788 55.0097 155.306 55.292 154.929C55.5744 154.541 55.9626 154.253 56.4566 154.065C56.9507 153.865 57.5036 153.765 58.1153 153.765H61.0268V153.13C61.0268 152.518 60.8444 152.036 60.4798 151.683C60.1269 151.33 59.5975 151.153 58.8917 151.153C58.1976 151.153 57.6565 151.324 57.2683 151.665C56.8801 151.994 56.6154 152.441 56.4743 153.006L55.1685 152.583C55.3097 152.1 55.5332 151.665 55.8391 151.277C56.1449 150.877 56.5507 150.559 57.0566 150.324C57.5742 150.077 58.1918 149.953 58.9093 149.953C60.0151 149.953 60.8739 150.242 61.4856 150.818C62.0973 151.383 62.4031 152.183 62.4031 153.218V157.118C62.4031 157.47 62.5678 157.647 62.8972 157.647H63.6912V158.829H62.4737C62.0855 158.829 61.7738 158.723 61.5385 158.511C61.3032 158.288 61.1856 157.994 61.1856 157.629V157.541H60.9738C60.8444 157.764 60.668 158 60.4445 158.247C60.2327 158.482 59.9387 158.676 59.5622 158.829C59.1858 158.994 58.6976 159.076 58.0977 159.076ZM58.2565 157.876C59.0799 157.876 59.7446 157.635 60.2504 157.153C60.768 156.659 61.0268 155.971 61.0268 155.088V154.894H58.1682C57.6153 154.894 57.1566 155.018 56.7919 155.265C56.439 155.5 56.2625 155.859 56.2625 156.341C56.2625 156.823 56.4449 157.2 56.8095 157.47C57.186 157.741 57.6683 157.876 58.2565 157.876ZM65.7768 158.829V150.201H67.1355V151.259H67.3826C67.5355 150.883 67.7707 150.606 68.0884 150.43C68.406 150.253 68.8236 150.165 69.3412 150.165H70.3646V151.436H69.253C68.6295 151.436 68.1237 151.612 67.7355 151.965C67.359 152.306 67.1708 152.841 67.1708 153.571V158.829H65.7768ZM76.2648 159.076C75.4296 159.076 74.6767 158.9 74.0062 158.547C73.3474 158.182 72.8239 157.665 72.4357 156.994C72.0593 156.323 71.8711 155.529 71.8711 154.612V154.418C71.8711 153.488 72.0593 152.694 72.4357 152.036C72.8239 151.365 73.3474 150.853 74.0062 150.5C74.6767 150.136 75.4296 149.953 76.2648 149.953C77.0882 149.953 77.7882 150.106 78.3646 150.412C78.9527 150.718 79.4115 151.124 79.7409 151.63C80.0821 152.136 80.2997 152.677 80.3938 153.253L79.0351 153.535C78.9763 153.112 78.8351 152.724 78.6116 152.371C78.3999 152.018 78.0999 151.736 77.7117 151.524C77.3235 151.312 76.8471 151.206 76.2824 151.206C75.706 151.206 75.1884 151.336 74.7296 151.595C74.2826 151.853 73.9238 152.224 73.6533 152.706C73.3945 153.188 73.2651 153.765 73.2651 154.435V154.594C73.2651 155.265 73.3945 155.841 73.6533 156.323C73.9238 156.806 74.2826 157.176 74.7296 157.435C75.1884 157.694 75.706 157.823 76.2824 157.823C77.1412 157.823 77.794 157.6 78.2411 157.153C78.6998 156.706 78.9822 156.153 79.088 155.494L80.4644 155.794C80.335 156.359 80.0997 156.894 79.7586 157.4C79.4174 157.906 78.9527 158.312 78.3646 158.617C77.7882 158.923 77.0882 159.076 76.2648 159.076ZM85.6637 159.076C85.0637 159.076 84.5167 158.97 84.0227 158.759C83.5286 158.547 83.1404 158.241 82.8581 157.841C82.5757 157.441 82.4346 156.953 82.4346 156.376C82.4346 155.788 82.5757 155.306 82.8581 154.929C83.1404 154.541 83.5286 154.253 84.0227 154.065C84.5167 153.865 85.0696 153.765 85.6813 153.765H88.5928V153.13C88.5928 152.518 88.4105 152.036 88.0458 151.683C87.6929 151.33 87.1635 151.153 86.4577 151.153C85.7637 151.153 85.2225 151.324 84.8343 151.665C84.4461 151.994 84.1815 152.441 84.0403 153.006L82.7345 152.583C82.8757 152.1 83.0992 151.665 83.4051 151.277C83.7109 150.877 84.1168 150.559 84.6226 150.324C85.1402 150.077 85.7578 149.953 86.4754 149.953C87.5811 149.953 88.4399 150.242 89.0516 150.818C89.6633 151.383 89.9691 152.183 89.9691 153.218V157.118C89.9691 157.47 90.1338 157.647 90.4632 157.647H91.2572V158.829H90.0397C89.6515 158.829 89.3398 158.723 89.1045 158.511C88.8692 158.288 88.7516 157.994 88.7516 157.629V157.541H88.5399C88.4105 157.764 88.234 158 88.0105 158.247C87.7988 158.482 87.5047 158.676 87.1282 158.829C86.7518 158.994 86.2636 159.076 85.6637 159.076ZM85.8225 157.876C86.6459 157.876 87.3106 157.635 87.8164 157.153C88.334 156.659 88.5928 155.971 88.5928 155.088V154.894H85.7343C85.1814 154.894 84.7226 155.018 84.3579 155.265C84.005 155.5 83.8286 155.859 83.8286 156.341C83.8286 156.823 84.0109 157.2 84.3756 157.47C84.752 157.741 85.2343 157.876 85.8225 157.876ZM97.0718 159.076C96.2366 159.076 95.4837 158.9 94.8132 158.547C94.1544 158.182 93.631 157.665 93.2428 156.994C92.8663 156.323 92.6781 155.529 92.6781 154.612V154.418C92.6781 153.488 92.8663 152.694 93.2428 152.036C93.631 151.365 94.1544 150.853 94.8132 150.5C95.4837 150.136 96.2366 149.953 97.0718 149.953C97.8953 149.953 98.5952 150.106 99.1716 150.412C99.7598 150.718 100.219 151.124 100.548 151.63C100.889 152.136 101.107 152.677 101.201 153.253L99.8421 153.535C99.7833 153.112 99.6421 152.724 99.4186 152.371C99.2069 152.018 98.9069 151.736 98.5187 151.524C98.1305 151.312 97.6541 151.206 97.0895 151.206C96.513 151.206 95.9954 151.336 95.5367 151.595C95.0896 151.853 94.7309 152.224 94.4603 152.706C94.2015 153.188 94.0721 153.765 94.0721 154.435V154.594C94.0721 155.265 94.2015 155.841 94.4603 156.323C94.7309 156.806 95.0896 157.176 95.5367 157.435C95.9954 157.694 96.513 157.823 97.0895 157.823C97.9482 157.823 98.6011 157.6 99.0481 157.153C99.5069 156.706 99.7892 156.153 99.8951 155.494L101.271 155.794C101.142 156.359 100.907 156.894 100.566 157.4C100.224 157.906 99.7598 158.312 99.1716 158.617C98.5952 158.923 97.8953 159.076 97.0718 159.076ZM97.1247 162.446C96.7718 162.446 96.4366 162.399 96.119 162.305C95.8013 162.211 95.519 162.088 95.272 161.935L95.6955 161.052C95.8954 161.17 96.1072 161.27 96.3307 161.352C96.566 161.435 96.8248 161.476 97.1071 161.476C97.3424 161.476 97.5423 161.429 97.707 161.335C97.8717 161.241 97.9541 161.088 97.9541 160.876C97.9541 160.688 97.8776 160.547 97.7247 160.452C97.5835 160.358 97.3718 160.311 97.0895 160.311H96.4366L96.613 158.459H97.6365L97.5306 159.623C97.9894 159.623 98.3599 159.741 98.6422 159.976C98.9246 160.211 99.0657 160.552 99.0657 160.999C99.0657 161.329 98.9775 161.599 98.801 161.811C98.6246 162.035 98.3893 162.193 98.0952 162.288C97.8011 162.393 97.4776 162.446 97.1247 162.446ZM106.471 159.076C105.871 159.076 105.324 158.97 104.83 158.759C104.336 158.547 103.947 158.241 103.665 157.841C103.383 157.441 103.242 156.953 103.242 156.376C103.242 155.788 103.383 155.306 103.665 154.929C103.947 154.541 104.336 154.253 104.83 154.065C105.324 153.865 105.877 153.765 106.488 153.765H109.4V153.13C109.4 152.518 109.217 152.036 108.853 151.683C108.5 151.33 107.971 151.153 107.265 151.153C106.571 151.153 106.03 151.324 105.641 151.665C105.253 151.994 104.988 152.441 104.847 153.006L103.542 152.583C103.683 152.1 103.906 151.665 104.212 151.277C104.518 150.877 104.924 150.559 105.43 150.324C105.947 150.077 106.565 149.953 107.282 149.953C108.388 149.953 109.247 150.242 109.859 150.818C110.47 151.383 110.776 152.183 110.776 153.218V157.118C110.776 157.47 110.941 157.647 111.27 157.647H112.064V158.829H110.847C110.459 158.829 110.147 158.723 109.912 158.511C109.676 158.288 109.559 157.994 109.559 157.629V157.541H109.347C109.217 157.764 109.041 158 108.818 158.247C108.606 158.482 108.312 158.676 107.935 158.829C107.559 158.994 107.071 159.076 106.471 159.076ZM106.63 157.876C107.453 157.876 108.118 157.635 108.623 157.153C109.141 156.659 109.4 155.971 109.4 155.088V154.894H106.541C105.988 154.894 105.53 155.018 105.165 155.265C104.812 155.5 104.636 155.859 104.636 156.341C104.636 156.823 104.818 157.2 105.183 157.47C105.559 157.741 106.041 157.876 106.63 157.876ZM105.377 149.195L104.494 148.683L105.041 147.695C105.183 147.46 105.353 147.277 105.553 147.148C105.765 147.007 106.006 146.936 106.277 146.936C106.524 146.936 106.735 146.989 106.912 147.095C107.1 147.189 107.3 147.348 107.512 147.571C107.653 147.736 107.782 147.877 107.9 147.995C108.018 148.101 108.141 148.154 108.271 148.154C108.4 148.154 108.506 148.118 108.588 148.048C108.67 147.965 108.747 147.865 108.818 147.748L109.241 146.989L110.123 147.501L109.576 148.507C109.447 148.742 109.282 148.93 109.082 149.071C108.882 149.201 108.641 149.265 108.359 149.265C108.112 149.265 107.894 149.218 107.706 149.124C107.518 149.018 107.324 148.848 107.124 148.612C106.982 148.46 106.853 148.33 106.735 148.224C106.618 148.107 106.494 148.048 106.365 148.048C106.224 148.048 106.112 148.089 106.03 148.171C105.947 148.242 105.877 148.33 105.818 148.436L105.377 149.195ZM117.896 159.076C117.026 159.076 116.255 158.894 115.585 158.529C114.926 158.164 114.409 157.653 114.032 156.994C113.667 156.323 113.485 155.535 113.485 154.63V154.4C113.485 153.506 113.667 152.724 114.032 152.053C114.409 151.383 114.926 150.865 115.585 150.5C116.255 150.136 117.026 149.953 117.896 149.953C118.767 149.953 119.532 150.136 120.19 150.5C120.861 150.865 121.378 151.383 121.743 152.053C122.12 152.724 122.308 153.506 122.308 154.4V154.63C122.308 155.535 122.12 156.323 121.743 156.994C121.378 157.653 120.861 158.164 120.19 158.529C119.532 158.894 118.767 159.076 117.896 159.076ZM117.896 157.823C118.814 157.823 119.543 157.535 120.085 156.959C120.637 156.371 120.914 155.582 120.914 154.594V154.435C120.914 153.447 120.637 152.665 120.085 152.089C119.543 151.5 118.814 151.206 117.896 151.206C116.991 151.206 116.261 151.5 115.708 152.089C115.156 152.665 114.879 153.447 114.879 154.435V154.594C114.879 155.582 115.156 156.371 115.708 156.959C116.261 157.535 116.991 157.823 117.896 157.823Z" fill="black"/>
<rect y="223.844" width="71.1558" height="23.7186" rx="5.88178" fill="#E3E3E3"/>
<path d="M20.2126 240.292V232.057H21.2007V235.715H25.0592V232.057H26.0473V240.292H25.0592V236.61H21.2007V240.292H20.2126ZM30.0734 240.292V232.951H27.4266V232.057H33.7083V232.951H31.0615V240.292H30.0734ZM35.0834 240.292V232.057H36.9655L39.1536 239.668H39.3065L41.4945 232.057H43.3767V240.292H42.4238V232.704H42.2591L40.0829 240.292H38.3772L36.2009 232.704H36.0362V240.292H35.0834ZM45.3792 240.292V232.057H46.3674V239.397H50.5317V240.292H45.3792Z" fill="black"/>
<rect x="91.9093" y="223.844" width="71.1558" height="23.7186" rx="5.88178" fill="#E3E3E3"/>
<path d="M119.546 240.456C118.565 240.456 117.785 240.174 117.205 239.609C116.624 239.037 116.334 238.205 116.334 237.115V235.233C116.334 234.143 116.624 233.316 117.205 232.751C117.785 232.179 118.565 231.892 119.546 231.892C120.518 231.892 121.263 232.163 121.781 232.704C122.306 233.245 122.569 233.986 122.569 234.927V234.986H121.592V234.892C121.592 234.272 121.424 233.767 121.087 233.375C120.757 232.975 120.244 232.775 119.546 232.775C118.848 232.775 118.303 232.99 117.91 233.422C117.518 233.845 117.322 234.441 117.322 235.21V237.139C117.322 237.907 117.518 238.507 117.91 238.939C118.303 239.362 118.848 239.574 119.546 239.574C120.244 239.574 120.757 239.378 121.087 238.986C121.424 238.586 121.592 238.076 121.592 237.456V237.268H122.569V237.421C122.569 238.362 122.306 239.103 121.781 239.645C121.263 240.186 120.518 240.456 119.546 240.456ZM126.975 240.456C126.379 240.456 125.846 240.35 125.376 240.139C124.905 239.927 124.533 239.609 124.258 239.186C123.991 238.754 123.858 238.217 123.858 237.574V237.327H124.834V237.574C124.834 238.256 125.034 238.766 125.434 239.103C125.834 239.433 126.348 239.597 126.975 239.597C127.619 239.597 128.109 239.452 128.446 239.162C128.783 238.872 128.952 238.507 128.952 238.068C128.952 237.762 128.873 237.519 128.716 237.339C128.567 237.158 128.356 237.013 128.081 236.904C127.807 236.786 127.485 236.684 127.117 236.598L126.505 236.445C126.027 236.319 125.603 236.166 125.234 235.986C124.866 235.806 124.576 235.57 124.364 235.28C124.16 234.982 124.058 234.602 124.058 234.139C124.058 233.676 124.172 233.277 124.399 232.939C124.634 232.602 124.96 232.343 125.376 232.163C125.799 231.983 126.285 231.892 126.834 231.892C127.391 231.892 127.889 231.99 128.328 232.186C128.775 232.375 129.124 232.657 129.375 233.033C129.634 233.402 129.763 233.869 129.763 234.433V234.927H128.787V234.433C128.787 234.033 128.701 233.712 128.528 233.469C128.364 233.226 128.132 233.045 127.834 232.928C127.544 232.81 127.211 232.751 126.834 232.751C126.293 232.751 125.858 232.873 125.529 233.116C125.199 233.351 125.034 233.688 125.034 234.127C125.034 234.418 125.105 234.653 125.246 234.833C125.387 235.014 125.587 235.163 125.846 235.28C126.105 235.39 126.415 235.488 126.775 235.574L127.387 235.727C127.866 235.829 128.293 235.97 128.669 236.151C129.054 236.323 129.36 236.562 129.587 236.868C129.814 237.166 129.928 237.558 129.928 238.045C129.928 238.531 129.807 238.954 129.563 239.315C129.32 239.676 128.975 239.958 128.528 240.162C128.089 240.358 127.571 240.456 126.975 240.456ZM134.307 240.456C133.711 240.456 133.178 240.35 132.708 240.139C132.237 239.927 131.865 239.609 131.59 239.186C131.323 238.754 131.19 238.217 131.19 237.574V237.327H132.166V237.574C132.166 238.256 132.366 238.766 132.766 239.103C133.166 239.433 133.68 239.597 134.307 239.597C134.951 239.597 135.441 239.452 135.778 239.162C136.115 238.872 136.284 238.507 136.284 238.068C136.284 237.762 136.205 237.519 136.048 237.339C135.899 237.158 135.688 237.013 135.413 236.904C135.139 236.786 134.817 236.684 134.449 236.598L133.837 236.445C133.359 236.319 132.935 236.166 132.566 235.986C132.198 235.806 131.908 235.57 131.696 235.28C131.492 234.982 131.39 234.602 131.39 234.139C131.39 233.676 131.504 233.277 131.731 232.939C131.967 232.602 132.292 232.343 132.708 232.163C133.131 231.983 133.617 231.892 134.166 231.892C134.723 231.892 135.221 231.99 135.66 232.186C136.107 232.375 136.456 232.657 136.707 233.033C136.966 233.402 137.095 233.869 137.095 234.433V234.927H136.119V234.433C136.119 234.033 136.033 233.712 135.86 233.469C135.696 233.226 135.464 233.045 135.166 232.928C134.876 232.81 134.543 232.751 134.166 232.751C133.625 232.751 133.19 232.873 132.861 233.116C132.531 233.351 132.366 233.688 132.366 234.127C132.366 234.418 132.437 234.653 132.578 234.833C132.719 235.014 132.919 235.163 133.178 235.28C133.437 235.39 133.747 235.488 134.107 235.574L134.719 235.727C135.198 235.829 135.625 235.97 136.001 236.151C136.386 236.323 136.692 236.562 136.919 236.868C137.146 237.166 137.26 237.558 137.26 238.045C137.26 238.531 137.139 238.954 136.895 239.315C136.652 239.676 136.307 239.958 135.86 240.162C135.421 240.358 134.903 240.456 134.307 240.456Z" fill="black"/>
<rect x="379.497" y="177.889" width="71.1558" height="23.7186" rx="5.88178" fill="#E3E3E3"/>
<path d="M387.039 194.501C386.231 194.501 385.592 194.274 385.121 193.819C384.658 193.364 384.427 192.713 384.427 191.866V191.231H385.404V191.866C385.404 192.376 385.537 192.792 385.803 193.113C386.078 193.435 386.486 193.595 387.027 193.595C387.576 193.595 387.964 193.439 388.191 193.125C388.419 192.803 388.533 192.384 388.533 191.866V186.996H387.086V186.102H390.415V186.996H389.521V191.866C389.521 192.721 389.309 193.376 388.886 193.831C388.462 194.278 387.846 194.501 387.039 194.501ZM393.478 194.501C393.078 194.501 392.713 194.431 392.384 194.289C392.054 194.148 391.796 193.944 391.607 193.678C391.419 193.411 391.325 193.086 391.325 192.701C391.325 192.309 391.419 191.988 391.607 191.737C391.796 191.478 392.054 191.286 392.384 191.16C392.713 191.027 393.082 190.96 393.49 190.96H395.431V190.537C395.431 190.129 395.309 189.808 395.066 189.572C394.831 189.337 394.478 189.219 394.007 189.219C393.544 189.219 393.184 189.333 392.925 189.561C392.666 189.78 392.49 190.078 392.396 190.455L391.525 190.172C391.619 189.851 391.768 189.561 391.972 189.302C392.176 189.035 392.447 188.823 392.784 188.667C393.129 188.502 393.541 188.419 394.019 188.419C394.756 188.419 395.329 188.612 395.736 188.996C396.144 189.372 396.348 189.906 396.348 190.596V193.195C396.348 193.431 396.458 193.548 396.677 193.548H397.207V194.337H396.395C396.136 194.337 395.929 194.266 395.772 194.125C395.615 193.976 395.536 193.78 395.536 193.537V193.478H395.395C395.309 193.627 395.191 193.784 395.042 193.948C394.901 194.105 394.705 194.235 394.454 194.337C394.203 194.446 393.878 194.501 393.478 194.501ZM393.584 193.701C394.133 193.701 394.576 193.541 394.913 193.219C395.258 192.89 395.431 192.431 395.431 191.843V191.713H393.525C393.156 191.713 392.85 191.796 392.607 191.96C392.372 192.117 392.254 192.356 392.254 192.678C392.254 192.999 392.376 193.25 392.619 193.431C392.87 193.611 393.192 193.701 393.584 193.701ZM399.734 194.337L397.676 188.584H398.664L400.393 193.642H400.558L402.287 188.584H403.275L401.216 194.337H399.734ZM406.315 194.501C405.915 194.501 405.551 194.431 405.221 194.289C404.892 194.148 404.633 193.944 404.445 193.678C404.257 193.411 404.163 193.086 404.163 192.701C404.163 192.309 404.257 191.988 404.445 191.737C404.633 191.478 404.892 191.286 405.221 191.16C405.551 191.027 405.919 190.96 406.327 190.96H408.268V190.537C408.268 190.129 408.146 189.808 407.903 189.572C407.668 189.337 407.315 189.219 406.845 189.219C406.382 189.219 406.021 189.333 405.762 189.561C405.504 189.78 405.327 190.078 405.233 190.455L404.363 190.172C404.457 189.851 404.606 189.561 404.81 189.302C405.013 189.035 405.284 188.823 405.621 188.667C405.966 188.502 406.378 188.419 406.856 188.419C407.594 188.419 408.166 188.612 408.574 188.996C408.982 189.372 409.186 189.906 409.186 190.596V193.195C409.186 193.431 409.295 193.548 409.515 193.548H410.044V194.337H409.233C408.974 194.337 408.766 194.266 408.609 194.125C408.452 193.976 408.374 193.78 408.374 193.537V193.478H408.233C408.146 193.627 408.029 193.784 407.88 193.948C407.739 194.105 407.543 194.235 407.292 194.337C407.041 194.446 406.715 194.501 406.315 194.501ZM406.421 193.701C406.97 193.701 407.413 193.541 407.75 193.219C408.095 192.89 408.268 192.431 408.268 191.843V191.713H406.362C405.994 191.713 405.688 191.796 405.445 191.96C405.209 192.117 405.092 192.356 405.092 192.678C405.092 192.999 405.213 193.25 405.457 193.431C405.707 193.611 406.029 193.701 406.421 193.701ZM414.14 194.501C413.544 194.501 413.011 194.395 412.54 194.184C412.07 193.972 411.697 193.654 411.423 193.231C411.156 192.799 411.023 192.262 411.023 191.619V191.372H411.999V191.619C411.999 192.301 412.199 192.811 412.599 193.148C412.999 193.478 413.513 193.642 414.14 193.642C414.783 193.642 415.274 193.497 415.611 193.207C415.948 192.917 416.117 192.552 416.117 192.113C416.117 191.807 416.038 191.564 415.881 191.384C415.732 191.204 415.521 191.058 415.246 190.949C414.972 190.831 414.65 190.729 414.281 190.643L413.67 190.49C413.191 190.364 412.768 190.211 412.399 190.031C412.031 189.851 411.741 189.615 411.529 189.325C411.325 189.027 411.223 188.647 411.223 188.184C411.223 187.722 411.337 187.322 411.564 186.984C411.799 186.647 412.125 186.388 412.54 186.208C412.964 186.028 413.45 185.937 413.999 185.937C414.556 185.937 415.054 186.035 415.493 186.231C415.94 186.42 416.289 186.702 416.54 187.078C416.799 187.447 416.928 187.914 416.928 188.478V188.972H415.952V188.478C415.952 188.078 415.866 187.757 415.693 187.514C415.528 187.271 415.297 187.09 414.999 186.973C414.709 186.855 414.376 186.796 413.999 186.796C413.458 186.796 413.023 186.918 412.693 187.161C412.364 187.396 412.199 187.733 412.199 188.172C412.199 188.463 412.27 188.698 412.411 188.878C412.552 189.059 412.752 189.208 413.011 189.325C413.27 189.435 413.58 189.533 413.94 189.619L414.552 189.772C415.03 189.874 415.458 190.015 415.834 190.196C416.219 190.368 416.524 190.607 416.752 190.913C416.979 191.211 417.093 191.603 417.093 192.09C417.093 192.576 416.971 192.999 416.728 193.36C416.485 193.721 416.14 194.003 415.693 194.207C415.254 194.403 414.736 194.501 414.14 194.501ZM421.414 194.501C420.857 194.501 420.355 194.384 419.908 194.148C419.469 193.905 419.12 193.56 418.861 193.113C418.61 192.666 418.484 192.137 418.484 191.525V191.396C418.484 190.776 418.61 190.247 418.861 189.808C419.12 189.361 419.469 189.019 419.908 188.784C420.355 188.541 420.857 188.419 421.414 188.419C421.962 188.419 422.429 188.521 422.813 188.725C423.205 188.929 423.511 189.2 423.731 189.537C423.958 189.874 424.103 190.235 424.166 190.619L423.26 190.807C423.221 190.525 423.127 190.266 422.978 190.031C422.837 189.796 422.637 189.608 422.378 189.466C422.119 189.325 421.802 189.255 421.425 189.255C421.041 189.255 420.696 189.341 420.39 189.513C420.092 189.686 419.853 189.933 419.673 190.255C419.5 190.576 419.414 190.96 419.414 191.407V191.513C419.414 191.96 419.5 192.345 419.673 192.666C419.853 192.988 420.092 193.235 420.39 193.407C420.696 193.58 421.041 193.666 421.425 193.666C421.998 193.666 422.433 193.517 422.731 193.219C423.037 192.921 423.225 192.552 423.296 192.113L424.213 192.313C424.127 192.69 423.97 193.046 423.743 193.384C423.515 193.721 423.205 193.991 422.813 194.195C422.429 194.399 421.962 194.501 421.414 194.501ZM425.915 194.337V188.584H426.821V189.29H426.985C427.087 189.039 427.244 188.855 427.456 188.737C427.668 188.619 427.946 188.561 428.291 188.561H428.973V189.408H428.232C427.817 189.408 427.479 189.525 427.221 189.761C426.97 189.988 426.844 190.345 426.844 190.831V194.337H425.915ZM430.467 194.337V188.584H431.396V194.337H430.467ZM430.937 187.69C430.733 187.69 430.561 187.623 430.42 187.49C430.286 187.357 430.22 187.188 430.22 186.984C430.22 186.773 430.286 186.6 430.42 186.467C430.561 186.333 430.733 186.267 430.937 186.267C431.141 186.267 431.31 186.333 431.443 186.467C431.577 186.6 431.643 186.773 431.643 186.984C431.643 187.188 431.577 187.357 431.443 187.49C431.31 187.623 431.141 187.69 430.937 187.69ZM433.468 196.689V188.584H434.374V189.537H434.538C434.687 189.247 434.927 188.988 435.256 188.761C435.593 188.533 436.06 188.419 436.656 188.419C437.15 188.419 437.601 188.541 438.009 188.784C438.424 189.019 438.754 189.357 438.997 189.796C439.248 190.235 439.373 190.764 439.373 191.384V191.537C439.373 192.149 439.252 192.678 439.009 193.125C438.765 193.572 438.436 193.913 438.02 194.148C437.613 194.384 437.158 194.501 436.656 194.501C436.256 194.501 435.915 194.446 435.632 194.337C435.358 194.235 435.134 194.101 434.962 193.937C434.789 193.772 434.656 193.603 434.562 193.431H434.397V196.689H433.468ZM436.409 193.678C437.005 193.678 437.487 193.49 437.856 193.113C438.232 192.729 438.42 192.196 438.42 191.513V191.407C438.42 190.725 438.232 190.196 437.856 189.819C437.487 189.435 437.005 189.243 436.409 189.243C435.821 189.243 435.334 189.435 434.95 189.819C434.574 190.196 434.385 190.725 434.385 191.407V191.513C434.385 192.196 434.574 192.729 434.95 193.113C435.334 193.49 435.821 193.678 436.409 193.678ZM443.032 194.337C442.703 194.337 442.448 194.246 442.268 194.066C442.095 193.886 442.009 193.639 442.009 193.325V189.396H440.28V188.584H442.009V186.537H442.938V188.584H444.82V189.396H442.938V193.184C442.938 193.419 443.052 193.537 443.279 193.537H444.562V194.337H443.032Z" fill="black"/>
<rect x="34.0956" y="176.407" width="2.96482" height="47.4372" fill="#E3E3E3"/>
<rect x="126.005" y="176.407" width="2.96482" height="47.4372" fill="#E3E3E3"/>
<rect x="413.593" y="130.452" width="2.96482" height="47.4372" fill="#E3E3E3"/>
<rect x="223.844" y="59.2965" width="2.96482" height="94.8743" fill="#E3E3E3"/>
<rect x="223.844" y="154.171" width="2.96482" height="94.8743" fill="url(#paint0_linear_4_100)"/>
<rect x="126.005" y="247.563" width="2.96482" height="47.4372" fill="url(#paint1_linear_4_100)"/>
<rect x="413.593" y="201.608" width="2.96482" height="47.4372" fill="url(#paint2_linear_4_100)"/>
<rect x="34.0956" y="247.563" width="2.96482" height="47.4372" fill="url(#paint3_linear_4_100)"/>
<rect x="226.809" y="105.251" width="71.1558" height="2.96482" fill="#E3E3E3"/>
<rect x="152.688" y="151.206" width="71.1558" height="2.96482" fill="#E3E3E3"/>
<path d="M163.583 38.3417V20.8434H174.157V22.7432H165.683V28.6176H173.482V30.5174H165.683V38.3417H163.583ZM177.333 38.3417V20.8434H184.407C185.49 20.8434 186.44 21.035 187.257 21.4183C188.09 21.785 188.74 22.3182 189.206 23.0182C189.673 23.7014 189.906 24.5264 189.906 25.4929V25.7679C189.906 26.9178 189.631 27.826 189.081 28.4926C188.531 29.1592 187.882 29.6092 187.132 29.8425V30.1925C187.732 30.2091 188.223 30.4091 188.606 30.7924C189.006 31.159 189.206 31.7173 189.206 32.4672V38.3417H187.132V32.7172C187.132 32.2173 186.99 31.834 186.707 31.5673C186.44 31.3007 186.032 31.1674 185.482 31.1674H179.432V38.3417H177.333ZM179.432 29.2676H184.207C185.357 29.2676 186.24 28.9926 186.857 28.4426C187.49 27.876 187.807 27.0928 187.807 26.0929V25.9179C187.807 24.918 187.498 24.1431 186.882 23.5931C186.265 23.0265 185.373 22.7432 184.207 22.7432H179.432V29.2676ZM199.702 38.6916C197.619 38.6916 195.952 38.0917 194.702 36.8918C193.469 35.6753 192.853 33.9088 192.853 31.5923V27.5927C192.853 25.2763 193.469 23.5181 194.702 22.3182C195.952 21.1017 197.619 20.4934 199.702 20.4934C201.802 20.4934 203.468 21.1017 204.701 22.3182C205.951 23.5181 206.576 25.2763 206.576 27.5927V31.5923C206.576 33.9088 205.951 35.6753 204.701 36.8918C203.468 38.0917 201.802 38.6916 199.702 38.6916ZM199.702 36.8168C201.218 36.8168 202.393 36.3669 203.227 35.467C204.06 34.5504 204.476 33.2838 204.476 31.6673V27.5177C204.476 25.9012 204.06 24.643 203.227 23.7431C202.393 22.8265 201.218 22.3682 199.702 22.3682C198.202 22.3682 197.035 22.8265 196.202 23.7431C195.369 24.643 194.952 25.9012 194.952 27.5177V31.6673C194.952 33.2838 195.369 34.5504 196.202 35.467C197.035 36.3669 198.202 36.8168 199.702 36.8168ZM210.324 38.3417V20.8434H214.399L220.498 37.0168H220.823V20.8434H222.898V38.3417H218.824L212.749 22.1433H212.399V38.3417H210.324ZM231.474 38.3417V22.7432H225.85V20.8434H239.198V22.7432H233.574V38.3417H231.474ZM242.12 38.3417V20.8434H252.894V22.7432H244.22V28.5926H252.194V30.4924H244.22V36.4419H253.019V38.3417H242.12ZM256.456 38.3417V20.8434H260.53L266.63 37.0168H266.955V20.8434H269.03V38.3417H264.955L258.88 22.1433H258.531V38.3417H256.456ZM272.481 38.3417V36.4669H274.93V22.7182H272.481V20.8434H279.305C281.605 20.8434 283.38 21.4267 284.63 22.5932C285.896 23.7598 286.529 25.5513 286.529 27.9677V31.2174C286.529 33.6505 285.896 35.4503 284.63 36.6168C283.38 37.7667 281.605 38.3417 279.305 38.3417H272.481ZM277.03 36.4419H279.305C281.005 36.4419 282.288 36.0252 283.155 35.192C284.021 34.3587 284.455 33.0672 284.455 31.3174V27.8927C284.455 26.1095 284.021 24.8097 283.155 23.9931C282.288 23.1765 281.005 22.7682 279.305 22.7682H277.03V36.4419Z" fill="black"/>
<defs>
<linearGradient id="paint0_linear_4_100" x1="225.327" y1="154.171" x2="225.327" y2="249.045" gradientUnits="userSpaceOnUse">
<stop stop-color="#E3E3E3"/>
<stop offset="0.5" stop-color="#1D1D1D"/>
<stop offset="1" stop-color="#1D1D1D"/>
</linearGradient>
<linearGradient id="paint1_linear_4_100" x1="127.487" y1="247.563" x2="127.487" y2="295" gradientUnits="userSpaceOnUse">
<stop stop-color="#E3E3E3"/>
<stop offset="0.5" stop-color="#1D1D1D"/>
<stop offset="1" stop-color="#1D1D1D"/>
</linearGradient>
<linearGradient id="paint2_linear_4_100" x1="415.075" y1="201.608" x2="415.075" y2="249.045" gradientUnits="userSpaceOnUse">
<stop stop-color="#E3E3E3"/>
<stop offset="0.5" stop-color="#1D1D1D"/>
<stop offset="1" stop-color="#1D1D1D"/>
</linearGradient>
<linearGradient id="paint3_linear_4_100" x1="35.578" y1="247.563" x2="35.578" y2="295" gradientUnits="userSpaceOnUse">
<stop stop-color="#E3E3E3"/>
<stop offset="0.5" stop-color="#1D1D1D"/>
<stop offset="1" stop-color="#1D1D1D"/>
</linearGradient>
</defs>
</svg>
